<?xml version="1.0" encoding="utf-8"?>
<svg viewBox="253.114 121.15 265 216.524" width="265" height="216.524" xmlns="http://www.w3.org/2000/svg">
  <path d="M513,307.5l19.4-14.1l-67-106.4l16.1,0.6l0.2-6l-20-0.7c-2.5-5-3.2-10.6-2.2-16l35.9,1.2l0.2-6l-34.4-1.2 c0.8-1.8,1.8-3.5,3-5.2c5.1-6.8,13.2-10.6,21.7-10.2l24.6,1l0.2-6l-24.6-1c-10.4-0.4-20.4,4.3-26.7,12.6c-8,10.5-8.6,25.1-1.5,36.2 l23.6,37.4l-42.2-12.6l-0.2,3.8c0,0.3-0.2,5.4,3,10.8l-39.3-0.2l0-9.4l-6,0l0,9.4l-39.1,0.2c3.2-5.4,3-10.5,3-10.8l-0.2-3.8 l-42.2,12.6l23.6-37.4c7-11.2,6.4-25.7-1.5-36.2c-6.3-8.3-16.3-13-26.7-12.6l-24.6,1l0.2,6l24.6-1c8.5-0.4,16.6,3.5,21.7,10.2 c1.2,1.6,2.2,3.4,3,5.2l-34.4,1.2l0.2,6l35.9-1.2c0.9,5.4,0.2,11-2.2,16l-20,0.7l0.2,6l16.1-0.6l-67,106.4l19.4,14.1l40.7-19.9 l69.4,53.6l0,12.8l6,0l0-13l69.2-53.4L513,307.5z M519.6,295.3l1.5-8.5l3.2,5.1L519.6,295.3z M278.9,286.7l1.5,8.6l-4.7-3.4 L278.9,286.7z M333.7,284.6l1.1-0.5c6.8-3.3,11.9-9.4,13.9-16.7c2.4-8.5,0.4-17.5-5.2-24.3l-4.6,3.8c4.4,5.2,5.9,12.3,4,18.9 c-1.6,5.7-5.5,10.4-10.8,13l-44.5,21.8l-0.3-0.2l-3.7-21.1l30-47.6l40.5-12.1c-0.4,1.2-0.9,2.6-1.8,3.9c-3.4,5.3-9.8,8.1-19.1,8.4 l0.2,6c7.9-0.2,14.3-2.2,19-5.8l44.5-0.2l0.2,101.8L333.7,284.6z M403.1,333.4l-0.2-101.6l44.6,0.2c4.7,3.6,11,5.5,19,5.8l0.2-6 c-9.3-0.3-15.7-3.1-19.1-8.4c-0.9-1.3-1.4-2.7-1.8-3.9l40.5,12.1l30,47.6l-3.7,21.1l-0.3,0.2l-44.5-21.8c-5.3-2.6-9.2-7.3-10.8-13 c-1.8-6.6-0.3-13.6,4-18.9l-4.6-3.8c-5.6,6.8-7.6,15.8-5.2,24.3c2.1,7.3,7.1,13.4,13.9,16.7l1.1,0.5L403.1,333.4z" style="fill: rgb(255, 255, 255);" transform="matrix(1, 0, 0, 1, -14.285714, -16.32653)"/>
</svg>